<?xml version="1.0" encoding="UTF-8" standalone="no"?>
<svg
   id="Layer_2"
   data-name="Layer 2"
   viewBox="0 0 120 160"
   version="1.1"
   sodipodi:docname="Symbol_Flame_Color.svg"
   inkscape:version="1.4.3 (0d15f75, 2025-12-25)"
   xmlns:inkscape="http://www.inkscape.org/namespaces/inkscape"
   xmlns:sodipodi="http://sodipodi.sourceforge.net/DTD/sodipodi-0.dtd"
   xmlns="http://www.w3.org/2000/svg"
   xmlns:svg="http://www.w3.org/2000/svg">
  <sodipodi:namedview
     id="namedview1"
     pagecolor="#505050"
     bordercolor="#eeeeee"
     borderopacity="1"
     inkscape:showpageshadow="0"
     inkscape:pageopacity="0"
     inkscape:pagecheckerboard="0"
     inkscape:deskcolor="#505050"
     inkscape:zoom="5.11875"
     inkscape:cx="60.07326"
     inkscape:cy="80"
     inkscape:window-width="2048"
     inkscape:window-height="1058"
     inkscape:window-x="4043"
     inkscape:window-y="618"
     inkscape:window-maximized="1"
     inkscape:current-layer="g2" />
  <defs
     id="defs1">
    <style
       id="style1">
      .cls-1 {
        fill: #dd9a7a;
      }
    </style>
  </defs>
  <g
     id="g2"
     transform="matrix(1.0818215,0,0,1.0206366,-7.7008441,-5.7177251)">
    <path
       class="cls-1"
       d="M 60,154 C 26,141 16,103 33,74 43,57 45,45 41,30 56,42 63,55 63,70 72,50 71,32 60,12 c 33,18 45,57 36,92 -7,27 -15,41 -36,50 z m 0,-26 C 74,122 79,105 73,91 70,84 70,78 72,72 63,79 59,90 61,101 54,92 53,82 56,73 c -12,11 -15,30 -7,43 4,6 7,10 11,12 z"
       id="path2"
       style="fill:#4a0707;fill-opacity:1" />
  </g>
  <g
     id="Symbol_Flame">
    <path
       class="cls-1"
       d="M60,154C26,141,16,103,33,74c10-17,12-29,8-44c15,12,22,25,22,40c9-20,8-38-3-58c33,18,45,57,36,92c-7,27-15,41-36,50ZM60,128c14-6,19-23,13-37c-3-7-3-13-1-19c-9,7-13,18-11,29c-7-9-8-19-5-28c-12,11-15,30-7,43c4,6,7,10,11,12Z"
       id="path1"
       style="fill:#bc3131;fill-opacity:1" />
  </g>
</svg>
