<?xml version="1.0" encoding="UTF-8" standalone="no"?>
<svg
   id="Layer_2"
   data-name="Layer 2"
   viewBox="0 0 220.5 360.54745"
   version="1.1"
   sodipodi:docname="Boiler_Box.svg"
   width="220.5"
   height="360.54745"
   inkscape:version="1.4.3 (0d15f75, 2025-12-25)"
   xmlns:inkscape="http://www.inkscape.org/namespaces/inkscape"
   xmlns:sodipodi="http://sodipodi.sourceforge.net/DTD/sodipodi-0.dtd"
   xmlns="http://www.w3.org/2000/svg"
   xmlns:svg="http://www.w3.org/2000/svg">
  <sodipodi:namedview
     id="namedview16"
     pagecolor="#505050"
     bordercolor="#eeeeee"
     borderopacity="1"
     inkscape:showpageshadow="0"
     inkscape:pageopacity="0"
     inkscape:pagecheckerboard="0"
     inkscape:deskcolor="#505050"
     inkscape:zoom="2.275"
     inkscape:cx="65.934066"
     inkscape:cy="114.50549"
     inkscape:window-width="2048"
     inkscape:window-height="1058"
     inkscape:window-x="4043"
     inkscape:window-y="618"
     inkscape:window-maximized="1"
     inkscape:current-layer="Layer_2" />
  <defs
     id="defs1">
    <style
       id="style1">
      .cls-1 {
        fill: #acb6dd;
      }
      .cls-2 {
        fill: none;
        stroke: #acb6dd;
        stroke-width: 5;
        stroke-linejoin: round;
        stroke-linecap: round;
      }
      .cls-3 {
        fill: none;
        stroke: #acb6dd;
        stroke-width: 3;
        stroke-linejoin: round;
        stroke-linecap: round;
      }
    </style>
  </defs>
  <g
     id="Boiler_Box"
     transform="translate(-19.5,0.04744482)">
    <!-- flue stack -->
    <rect
       class="cls-3"
       x="104.93593"
       y="1.3884834"
       width="23.601004"
       height="34.945793"
       rx="2.3601005"
       id="rect1" />
    <!-- cabinet -->
    <rect
       class="cls-2"
       x="36"
       y="36"
       width="168"
       height="296"
       rx="16"
       id="rect2" />
    <!-- base plinth + legs -->
    <rect
       class="cls-2"
       x="22"
       y="330"
       width="196"
       height="20"
       rx="3"
       id="rect3" />
    <rect
       class="cls-3"
       x="46"
       y="350"
       width="22"
       height="9"
       id="rect4" />
    <rect
       class="cls-3"
       x="172"
       y="350"
       width="22"
       height="9"
       id="rect5" />
    <!-- compartment divider -->
    <line
       class="cls-2"
       x1="36"
       y1="182"
       x2="204"
       y2="182"
       id="line5" />
    <!-- heat-exchanger coil (top compartment) -->
    <path
       class="cls-3"
       d="M 56,158 V 86 h 24 v 72 h 24 V 86 h 24 v 72"
       id="path5" />
    <!-- control panel -->
    <rect
       class="cls-3"
       x="146"
       y="80"
       width="46"
       height="60"
       rx="4"
       id="rect6" />
    <rect
       class="cls-3"
       x="152"
       y="86"
       width="34"
       height="22"
       rx="2"
       id="rect7" />
    <circle
       class="cls-1"
       cx="158"
       cy="124"
       r="3"
       id="circle7" />
    <circle
       class="cls-1"
       cx="172"
       cy="124"
       r="3"
       id="circle8" />
    <circle
       class="cls-1"
       cx="186"
       cy="124"
       r="3"
       id="circle9" />
    <!-- supply / return pipe ports (right) - bore 21, flange 40.21, matches pipe assets, flange face at x=240 -->
    <path
       class="cls-1"
       d="m 202,106.51 h 30 V 99.9 h 8 v 40.21 h -8 v -6.6 h -30 v -3 h 30 v -21 h -30 z"
       id="path9" />
    <path
       class="cls-1"
       d="m 202,236.51 h 30 v -6.61 h 8 v 40.21 h -8 v -6.6 h -30 v -3 h 30 v -21 h -30 z"
       id="path10" />
    <!-- burner louvers -->
    <line
       class="cls-3"
       x1="56"
       y1="298"
       x2="92"
       y2="298"
       id="line10" />
    <line
       class="cls-3"
       x1="56"
       y1="308"
       x2="92"
       y2="308"
       id="line11" />
    <line
       class="cls-3"
       x1="56"
       y1="318"
       x2="92"
       y2="318"
       id="line12" />
    <line
       class="cls-3"
       x1="148"
       y1="298"
       x2="184"
       y2="298"
       id="line13" />
    <line
       class="cls-3"
       x1="148"
       y1="308"
       x2="184"
       y2="308"
       id="line14" />
    <line
       class="cls-3"
       x1="148"
       y1="318"
       x2="184"
       y2="318"
       id="line15" />
    <!-- corner bolts -->
    <circle
       class="cls-1"
       cx="50"
       cy="50"
       r="3"
       id="circle15" />
    <circle
       class="cls-1"
       cx="190"
       cy="50"
       r="3"
       id="circle16" />
  </g>
</svg>
